#!OML:ASF H:\Punching\Project 1\Capture day 1\Session 1\female.ASF
:FULLY-SPECIFIED
:DEGREES
3517
root -4.87057 15.7929 -3.23518 14.1676 -39.4886 -360.957
lowerback -8.01793 -1.62049 -0.627451
upperback -6.22155 -2.20706 1.48069
thorax -1.86337 -1.10113 1.74181
lowerneck -14.1329 0.0727594 4.6377
upperneck 42.1446 -2.61262 -0.0501921
head 18.0703 -0.636521 -1.46076
rclavicle 7.57494e-014 1.45113e-014
rhumerus -41.5649 -15.2892 -66.6636
rradius 24.1866
rwrist 10.5346
rhand -13.9696 -3.31647
rfingers 7.12502
rthumb 12.1585 -32.9432
lclavicle 7.57494e-014 1.45113e-014
lhumerus -46.0903 10.2144 70.0413
lradius 40.4223
lwrist -16.7359
lhand -8.45455 12.054
lfingers 7.12502
lthumb 17.4714 41.2889
rfemur -32.173 1.84579 21.9305
rtibia 26.3952
rfoot -8.73783 -23.3886
rtoes 19.357
lfemur 10.5386 0.788598 -22.2609
ltibia -6.36111e-015
lfoot -15.8546 33.0035
ltoes -8.81576
3518
root -4.97249 15.803 -3.20208 14.2319 -39.7451 -361.084
lowerback -8.06707 -1.63336 -0.581622
upperback -6.24096 -2.22814 1.4686
thorax -1.85793 -1.11397 1.70122
lowerneck -14.1173 0.139168 4.74237
upperneck 42.1876 -2.5271 -0.111092
head 18.0928 -0.595824 -1.49388
rclavicle 4.31052e-014 5.76476e-015
rhumerus -41.6584 -15.5121 -66.6013
rradius 24.0619
rwrist 10.9731
rhand -13.7493 -2.81409
rfingers 7.12502
rthumb 12.3708 -32.4281
lclavicle 4.31052e-014 5.76476e-015
lhumerus -46.1968 10.3025 70.0893
lradius 40.5435
lwrist -16.6388
lhand -8.38288 12.0164
lfingers 7.12502
lthumb 17.5404 41.2451
rfemur -31.7075 1.64261 22.3979
rtibia 26.1564
rfoot -8.70358 -22.7895
rtoes 19.4588
lfemur 10.8774 0.861329 -21.9236
ltibia 3.18055e-014
lfoot -14.9406 33.2299
ltoes -9.82085
3519
root -5.07366 15.8132 -3.1703 14.2805 -40.027 -361.192
lowerback -8.09543 -1.63484 -0.553522
upperback -6.25883 -2.23302 1.44308
thorax -1.86278 -1.11823 1.65838
lowerneck -14.1088 0.202283 4.84954
upperneck 42.2314 -2.45171 -0.163157
head 18.1178 -0.55738 -1.52533
rclavicle -1.24799e-014 2.78299e-015
rhumerus -41.7279 -15.6791 -66.6024
rradius 23.9644
rwrist 11.356
rhand -13.5447 -2.38854
rfingers 7.12502
rthumb 12.5681 -31.9905
lclavicle -1.24799e-014 2.78299e-015
lhumerus -46.2868 10.3675 70.1418
lradius 40.6632
lwrist -16.5621
lhand -8.27049 11.9621
lfingers 7.12502
lthumb 17.6486 41.1811
rfemur -31.2332 1.42831 22.8512
rtibia 25.8959
rfoot -8.70753 -22.1948
rtoes 19.4173
lfemur 11.2019 0.95455 -21.6053
ltibia 5.08889e-014
lfoot -13.8518 33.4929
ltoes -10.7024
3520
root -5.17383 15.8232 -3.13937 14.3174 -40.3301 -361.301
lowerback -8.09752 -1.62594 -0.523523
upperback -6.27206 -2.22408 1.41193
thorax -1.87796 -1.11559 1.61029
lowerneck -14.1056 0.263349 4.95391
upperneck 42.2736 -2.37998 -0.211764
head 18.1435 -0.520251 -1.55539
rclavicle -9.85848e-015 -7.15625e-015
rhumerus -41.7549 -15.6881 -66.7522
rradius 23.9343
rwrist 11.4981
rhand -13.4981 -2.27081
rfingers 7.12502
rthumb 12.613 -31.87
lclavicle -9.85848e-015 -7.15625e-015
lhumerus -46.3634 10.412 70.2051
lradius 40.7771
lwrist -16.5106
lhand -8.14327 11.8903
lfingers 7.12502
lthumb 17.771 41.0983
rfemur -30.7355 1.19777 23.3086
rtibia 25.6079
rfoot -8.72924 -21.5999
rtoes 19.2493
lfemur 11.521 1.06854 -21.2923
ltibia 0
lfoot -12.562 33.7989
ltoes -11.371
3521
root -5.2727 15.833 -3.10893 14.3372 -40.6317 -361.416
lowerback -8.06896 -1.60701 -0.472983
upperback -6.27856 -2.20275 1.37032
thorax -1.90444 -1.10742 1.54153
lowerneck -14.1032 0.319252 5.05223
upperneck 42.314 -2.31905 -0.248258
head 18.1686 -0.486655 -1.58064
rclavicle -1.12686e-014 -2.68359e-015
rhumerus -41.7538 -15.6034 -66.9918
rradius 23.956
rwrist 11.4647
rhand -13.4848 -2.32478
rfingers 7.12502
rthumb 12.6258 -31.9232
lclavicle -1.12686e-014 -2.68359e-015
lhumerus -46.4226 10.4193 70.2851
lradius 40.8805
lwrist -16.4924
lhand -8.01852 11.795
lfingers 7.12502
lthumb 17.891 40.992
rfemur -30.1999 0.945041 23.77
rtibia 25.2893
rfoot -8.76612 -21.0141
rtoes 19.0351
lfemur 7.76576 1.43816 -20.9483
ltibia 8.12112
lfoot -15.7059 32.9931
ltoes -11.7551
3522
root -5.37018 15.8426 -3.07866 14.3339 -40.924 -361.537
lowerback -8.00551 -1.5872 -0.406829
upperback -6.2788 -2.18082 1.32769
thorax -1.94411 -1.0993 1.46394
lowerneck -14.0962 0.375182 5.1418
upperneck 42.3544 -2.25535 -0.282927
head 18.1929 -0.453131 -1.6029
rclavicle -2.59041e-015 -2.78299e-015
rhumerus -41.7152 -15.3738 -67.3446
rradius 24.0371
rwrist 11.2429
rhand -13.5593 -2.63075
rfingers 7.12502
rthumb 12.554 -32.2336
lclavicle -2.59041e-015 -2.78299e-015
lhumerus -46.4775 10.4145 70.3793
lradius 40.9765
lwrist -16.5073
lhand -7.89022 11.6723
lfingers 7.12502
lthumb 18.0145 40.858
rfemur -29.6168 0.649209 24.2374
rtibia 24.9375
rfoot -8.81327 -20.4196
rtoes 18.8118
lfemur 5.93587 1.69558 -20.5799
ltibia 12.407
lfoot -16.387 32.731
ltoes -11.777
3523
root -5.46611 15.852 -3.04869 14.3188 -41.201 -361.668
lowerback -7.91755 -1.5625 -0.315245
upperback -6.27159 -2.15346 1.27843
thorax -1.99069 -1.08929 1.36619
lowerneck -14.0891 0.426489 5.22654
upperneck 42.3963 -2.20056 -0.309731
head 18.2181 -0.422764 -1.62228
rclavicle 1.72135e-014 -2.98177e-015
rhumerus -41.6443 -15.1416 -67.717
rradius 24.1169
rwrist 11.0203
rhand -13.6467 -3.0133
rfingers 7.12502
rthumb 12.4698 -32.6213
lclavicle 1.72135e-014 -2.98177e-015
lhumerus -46.5127 10.3766 70.4924
lradius 41.0735
lwrist -16.5314
lhand -7.74341 11.5758
lfingers 7.12502
lthumb 18.1557 40.7485
rfemur -28.9937 0.319309 24.7102
rtibia 24.552
rfoot -8.87276 -19.8223
rtoes 18.6037
lfemur 4.46074 2.20801 -20.17
ltibia 15.9647
lfoot -16.3064 32.3589
ltoes -11.3844
3524
root -5.56031 15.8612 -3.01919 14.2958 -41.4594 -361.812
lowerback -7.80013 -1.535 -0.198465
upperback -6.25727 -2.12329 1.22369
thorax -2.04712 -1.07868 1.24955
lowerneck -14.0863 0.476738 5.31457
upperneck 42.4363 -2.15123 -0.329813
head 18.2435 -0.392938 -1.64007
rclavicle 3.80704e-014 2.48481e-015
rhumerus -41.5503 -14.9046 -68.0965
rradius 24.1972
rwrist 10.8285
rhand -13.7015 -3.31674
rfingers 7.12502
rthumb 12.4169 -32.9279
lclavicle 3.80704e-014 2.48481e-015
lhumerus -46.5254 10.3084 70.6223
lradius 41.1813
lwrist -16.539
lhand -7.55932 11.5286
lfingers 7.12502
lthumb 18.3328 40.6847
rfemur -28.3313 -0.0229597 25.1826
rtibia 24.1306
rfoot -8.95063 -19.2394
rtoes 18.4431
lfemur 3.1142 2.64855 -19.7618
ltibia 19.2284
lfoot -15.8302 32.1496
ltoes -10.4914
3525
root -5.65258 15.87 -2.99004 14.272 -41.6959 -361.974
lowerback -7.65911 -1.51296 -0.0572858
upperback -6.23932 -2.10111 1.17396
thorax -2.11318 -1.07273 1.12455
lowerneck -14.0786 0.530211 5.39454
upperneck 42.4728 -2.09304 -0.350152
head 18.266 -0.360986 -1.65473
rclavicle 1.25823e-013 2.03257e-014
rhumerus -41.4261 -14.6863 -68.4439
rradius 24.2508
rwrist 10.7501
rhand -13.7011 -3.46374
rfingers 7.12502
rthumb 12.4173 -33.0749
lclavicle 1.25823e-013 2.03257e-014
lhumerus -46.5319 10.2401 70.7649
lradius 41.2971
lwrist -16.5482
lhand -7.36788 11.5188
lfingers 7.12502
lthumb 18.517 40.6574
rfemur -27.6339 -0.376679 25.6546
rtibia 23.6652
rfoot -9.0306 -18.6728
rtoes 18.3048
lfemur 1.80724 3.00705 -19.3584
ltibia 22.3543
lfoot -15.0366 32.0969
ltoes -8.99051
